<svg xmlns="http://www.w3.org/2000/svg" xmlns:xlink="http://www.w3.org/1999/xlink" xmlns:lucid="lucid" width="1840" height="426.33"><g transform="translate(-80 -380)" lucid:page-tab-id="0_0"><path d="M0 0h3677.73v1322.83H0z" fill="#282c33"/><path d="M400 600h100v100H400V600z" stroke="#fff" stroke-opacity="0" stroke-width="2" fill="#3f8624"/><path d="M481.9 653.38c-.38-2.07-2.74-3.54-4.4-4.6-.5-.34-1.92-.87-2.05-1.34 0-.33 0-.67.13-1l1.34-9.55c.4-2.8.77-5.62 1.15-8.5.32-2.52-.9-4.26-3-5.73-4.28-3-9.9-4.2-14.95-5-6.64-1.07-12.46-1.27-19.17-.6-6.07.4-11.1 1.6-16.74 4-2.8 1.34-6.57 3.4-6.06 7 1.28 10.83 2.88 21.64 4.35 32.46.63 4.94 1.33 9.88 1.97 14.82.25 2.07 1.4 3.67 3.32 4.47 4.08 2.2 9.2 2.87 13.86 3.27 6.45.6 11.94.4 18.33-.8 3.83-.68 10.98-1.88 11.62-6.7.77-5.93 1.6-11.87 2.36-17.8l.32-1.8c2.18.52 8.37 1.66 7.6-2.62zm-33.86-34.05c8.06 0 17.2.94 24.35 4.88 1.14.6 3.7 1.94 2.93 3.6-.77 1.62-3.2 2.42-4.67 3.02-2.17.8-4.15 1.33-6.45 1.8-9.96 2-18.77 2.2-28.87.6-4.54-.47-8.3-1.6-12.4-3.6-.95-.6-2.55-1.54-2.1-2.87.32-.74.83-1.27 1.53-1.67 3.13-2 6-3.2 9.65-3.88 5.5-1.33 10.36-1.93 16.04-1.87zM469 675.55c-.25 1.53-2.8 2.33-4.02 2.73-2.7.94-5.05 1.47-7.86 1.8-6.2.8-11.57.8-17.83 0-3.9-.33-7.16-1.2-10.68-2.93-.96-.4-1.53-1.27-1.6-2.27-1.34-10.62-2.8-21.16-4.28-31.7l-1.53-11.5c3.2 1.74 6.14 2.8 9.72 3.4 3.9.8 7.16 1.2 11.12 1.48 7.67.53 14.25.2 21.85-1.2 4-.6 7.34-1.74 10.92-3.67L472 652.57c-7.15-2.34-13.03-4.67-19.74-7.94-.32-.14-.57-.27-.83-.4-.38-.27-.25-.14-.45-.54-.32-.8-.38-1.33-1.08-2-.64-.47-1.34-.67-2.1-.6-1.67.07-2.95 1.53-2.82 3.2.13 1.6 1.6 2.87 3.26 2.74.44-.07.83-.2 1.34-.4.5-.13.5-.13 1.02.13 6.84 3.34 12.78 5.8 20 8.2 1.02.35 1.02 0 1.02.88-.06.67-.13 1.27-.26 1.94l-.83 6.33zm-20.57-31.58c0 .4-.5.33-.64.13-.2-.26.63-.6.63-.13zm26.26 9.35l.37-2.94c1.34.8 3.58 1.93 4.22 3.4-1.35.54-3.4-.13-4.6-.46z" stroke="#fff" stroke-opacity="0" stroke-width="2" fill="#fff"/><use xlink:href="#a" transform="matrix(1,0,0,1,370,709) translate(2.345679012345684 17.77777777777778)"/><use xlink:href="#b" transform="matrix(1,0,0,1,370,709) translate(89.93827160493828 17.77777777777778)"/><use xlink:href="#c" transform="matrix(1,0,0,1,370,709) translate(1.080246913580254 44.44444444444444)"/><use xlink:href="#d" transform="matrix(1,0,0,1,370,709) translate(84.96913580246914 44.44444444444444)"/><use xlink:href="#e" transform="matrix(1,0,0,1,370,709) translate(59.074074074074076 71.11111111111111)"/><path d="M600 600h100v100H600V600z" stroke="#000" stroke-opacity="0" fill="#cd2264"/><path d="M629.22 671.65c3.4-2.17 4.56-6.57 2.75-10.23-2.03-3.8-6.8-5.37-10.65-3.35l-4.63-8 7.66-13.35-2.3-1.34-8.05 13.96c-.28.44-.28.9 0 1.34l5.15 8.95c-1.45 1.57-2.17 3.36-2.17 5.45 0 4.33 3.47 7.9 7.82 7.9.72 0 1.3-.06 1.95-.2l4.2 7.3c.3.45.73.67 1.16.67h16.6v-2.6h-15.8zm-4.42-1.27c-2.83 0-5.22-2.4-5.22-5.22 0-2.9 2.4-5.23 5.22-5.23 2.9 0 5.2 2.32 5.2 5.23 0 2.83-2.3 5.15-5.2 5.15zm61.2-21.04l-5.08-8.8c2.97-2.18 4.06-5.98 2.54-9.4-1.67-3.97-6.3-5.83-10.3-4.12l-4.1-7.16c-.3-.38-.74-.67-1.17-.67h-16.6v2.67h15.8l3.83 6.64c-2.32 2.18-3.2 5.24-2.25 8.22 1.3 4.18 5.73 6.5 9.93 5.15l4.7 8.14-6.65 11.5 2.32 1.34 7.02-12.16c.28-.45.28-.9 0-1.34zm-9.7-9.86c-2.9 0-5.23-2.38-5.23-5.22 0-2.9 2.32-5.22 5.22-5.22 2.8 0 5.13 2.3 5.13 5.22 0 2.84-2.32 5.22-5.14 5.22zm-8.05 32.1c-1 0-1.88.14-2.82.52l-5.65-9.56-.3.15 6.96-11.95c.3-.44.3-.97 0-1.34l-7.6-13.42c-.3-.38-.73-.67-1.16-.67h-14.05l-5.15-8.8c1.82-1.5 2.76-3.58 2.76-5.97 0-4.33-3.55-7.84-7.9-7.84-4.34 0-7.82 3.5-7.82 7.9 0 4.33 3.55 7.84 7.9 7.84 1 0 1.88-.15 2.82-.52l4.78 8.13-7.6 13.3c-.3.43-.3.88 0 1.33l7.67 13.36c.28.37.64.6 1.15.6h15.43c.07.07.2.07.3 0l5.2 8.87c-1.8 1.58-2.68 3.6-2.68 5.98 0 4.33 3.48 7.84 7.82 7.84 4.35 0 7.9-3.5 7.9-7.9-.08-4.34-3.55-7.85-7.9-7.77zm-34.83-45.83c-2.9 0-5.22-2.4-5.15-5.22 0-2.9 2.4-5.22 5.22-5.22 2.88.08 5.2 2.4 5.2 5.23-.07 2.9-2.4 5.22-5.28 5.22zm23.46 36.27h-13.83l-6.95-12 6.95-12.03h13.83l6.95 12zm11.44 22.6c-2.9 0-5.2-2.3-5.2-5.14 0-2.9 2.3-5.22 5.2-5.22 2.9 0 5.22 2.3 5.22 5.22 0 2.84-2.32 5.15-5.22 5.15z" stroke="#000" stroke-opacity="0" fill="#fff"/><use xlink:href="#f" transform="matrix(1,0,0,1,570,709) translate(39.29012345679012 17.77777777777778)"/><use xlink:href="#g" transform="matrix(1,0,0,1,570,709) translate(19.56790123456789 44.44444444444444)"/><path d="M800 600h100v100H800V600z" stroke="#fff" stroke-opacity="0" stroke-width="2" fill="#cc2264"/><path d="M828.93 629.33c11.56-11.54 30.25-11.52 41.8.04 3.3 3.28 5.43 6.72 7 11.1l2.5-.87c-3.34-9.6-10.15-16.44-19.77-19.8-16.8-5.88-35.18 2.98-41.1 19.8l2.5.88c1.6-4.4 3.72-7.87 7.07-11.15zM870.68 670.67c-11.58 11.53-30.3 11.53-41.8 0-3.36-3.33-5.55-6.8-7.07-11.22l-2.5.86c1.7 4.85 4.03 8.6 7.63 12.22 12.6 12.6 33.03 12.6 45.64.03 3.66-3.65 6.04-7.44 7.68-12.33l-2.5-.86c-1.52 4.48-3.7 7.96-7.07 11.3zM826.87 649.95c0-2.16-.77-4-2.28-5.53-3.06-3.04-7.98-3.04-11.03 0-3.04 3.05-3.04 7.98 0 11.03 3.05 3.03 7.97 3.03 11.02 0 1.5-1.53 2.27-3.35 2.27-5.5zm-4.2 3.6c-2.03 1.93-5.2 1.93-7.22 0-2-2-1.98-5.22.03-7.2.98-1 2.18-1.5 3.57-1.5 1.42 0 2.62.5 3.6 1.5 2 2 2 5.22 0 7.2zM886.4 644.54c-3.04-3.03-7.94-3.03-10.98 0-3.03 3.04-3.03 7.95 0 11 3.04 3 7.94 3 11 0 3-3.05 3-7.96 0-11zm-1.9 9.1c-2 1.98-5.2 1.98-7.2 0-1.97-2-2-5.2 0-7.2 1.94-2.06 5.16-2.15 7.2-.22 2.05 1.92 2.14 5.15.2 7.2-.05.07-.12.14-.2.2z" stroke="#fff" stroke-opacity="0" stroke-width="2" fill="#fff"/><path d="M838.9 662.9c5.48-5.46 16.6-5.46 22.08 0 .24.26.56.4.93.4.76 0 1.34-.6 1.34-1.34 0-.37-.13-.7-.4-.95-2.82-3.13-4.15-6.78-4-11-.15-4.24 1.18-7.9 4-11.05.53-.5.53-1.35 0-1.86-.5-.54-1.35-.54-1.86 0-5.48 5.44-16.6 5.44-22.08 0-.5-.54-1.36-.54-1.86 0-.53.5-.53 1.35 0 1.85 2.84 3.14 4.2 6.8 4.04 11.04.16 4.22-1.2 7.9-4.04 11-.27.27-.4.6-.4.96 0 .38.13.7.4.94.5.53 1.35.53 1.86 0zm3.46-20.46c5.08 1.97 10.08 1.97 15.16 0-1.94 5.08-1.94 10.03 0 15.1-5.08-1.96-10.08-1.96-15.16 0 1.94-5.07 1.94-10.02 0-15.1z" stroke="#fff" stroke-opacity="0" stroke-width="2" fill="#fff"/><path d="M866.17 655.45l4.5-4.54c.5-.5.5-1.36 0-1.87l-4.52-4.52-1.9 1.9 2.28 2.26h-6.02v2.66h6.03l-2.25 2.25zM833.94 655.48l4.56-4.54c.5-.53.5-1.36 0-1.9l-4.56-4.53-1.87 1.88 2.27 2.27h-5.83v2.67h5.84l-2.27 2.28z" stroke="#fff" stroke-opacity="0" stroke-width="2" fill="#fff"/><use xlink:href="#a" transform="matrix(1,0,0,1,770,709) translate(2.345679012345684 17.77777777777778)"/><use xlink:href="#b" transform="matrix(1,0,0,1,770,709) translate(89.93827160493828 17.77777777777778)"/><use xlink:href="#h" transform="matrix(1,0,0,1,770,709) translate(6.6049382716049365 44.44444444444444)"/><use xlink:href="#i" transform="matrix(1,0,0,1,770,709) translate(79.44444444444443 44.44444444444444)"/><path d="M1000 600h100v100h-100V600z" stroke="#fff" stroke-opacity="0" stroke-width="2" fill="#d86613"/><path d="M1080.67 683.33h-16.43c-.54 0-.96-.26-1.18-.73L1039.8 634h-9.8c-.76 0-1.35-.6-1.35-1.33V618c0-.73.6-1.33 1.34-1.33h20.53c.53 0 .96.26 1.17.73l23.15 48.6h5.82c.74 0 1.33.6 1.33 1.33V682c0 .73-.6 1.33-1.33 1.33zm-15.58-2.66h14.23v-12H1074c-.54 0-.96-.27-1.18-.74l-23.15-48.6h-18.35v12h9.34c.53 0 .96.27 1.22.74z" stroke="#fff" stroke-opacity="0" stroke-width="2" fill="#fff"/><path d="M1036.63 683.33h-17.32c-.46 0-.87-.24-1.14-.6-.26-.45-.26-.94-.06-1.35l18.15-37.88c.2-.48.67-.77 1.18-.77.53 0 .97.3 1.2.73l8.68 17.87c.22.36.22.77 0 1.18l-9.46 19.98c-.18.53-.65.85-1.2.85zm-15.2-2.68h14.37l8.83-18.63-7.17-14.9z" stroke="#fff" stroke-opacity="0" stroke-width="2" fill="#fff"/><use xlink:href="#j" transform="matrix(1,0,0,1,970,709) translate(11.944444444444443 17.77777777777778)"/><use xlink:href="#k" transform="matrix(1,0,0,1,970,709) translate(67.87037037037035 17.77777777777778)"/><path d="M900 400h100v100H900V400z" stroke="#fff" stroke-opacity="0" fill="#1c7b68"/><path d="M952.7 424.64c-12.56 0-22.73 10.15-22.73 22.7.06 3.88.87 7.18 2.67 10.55l-14 14.1c-1.8 2.43-1.8 5.56 0 8 2.2 2.96 6.4 3.54 9.36 1.33l2.67-2.6 11.27-11.32.12-.1c3.48 1.85 6.85 2.72 10.8 2.66 12.5-.06 22.6-10.27 22.54-22.75-.06-12.52-10.28-22.62-22.77-22.56zm-26.56 54.84c-1.57 1.5-4.13 1.45-5.64-.18-1.45-1.57-1.45-3.94 0-5.45l13.6-13.58c1.62 2.32 3.3 4.06 5.63 5.63zm26.55-12.13c-11.05 0-20.06-9-20.06-20.02 0-11.03 9-20.02 20.05-20.02 11.02 0 19.97 9 19.97 20.03 0 11.02-8.95 20.02-19.98 20.02z" stroke="#fff" stroke-opacity="0" fill="#fff"/><path d="M952.66 416.67c-4.62 0-8.56.86-12.74 2.82l1.1 2.38c14.04-6.5 30.65-.37 37.17 13.68 6.45 14.04.36 30.66-13.67 37.17-7.88 3.6-16.06 3.55-23.87-.2l-1.97 2.04c4.54 2.4 8.97 3.43 14.14 3.43 16.92-.06 30.64-13.8 30.58-30.73-.06-17-13.84-30.66-30.76-30.6zm-24.37 16.86l-2.3-1.28c-5.28 9.26-5.46 19.62-.6 29.07l2.03-2.03c-4.12-8.47-3.82-17.55.86-25.77z" stroke="#fff" stroke-opacity="0" fill="#fff"/><path d="M964.67 459.33H958v-2.66h4v-4h2.67v6.66zM964.67 442H962v-4h-4v-2.67h6.67V442zM943.33 442h-2.66v-6.67h6.66V438h-4v4zM947.33 459.33h-6.66v-6.66h2.66v4h4v2.66zM946 454h4.3l-4.3-4.3v4.3zM946 440.67v4.3l4.3-4.3H946zM959.33 440.67h-4.3l4.3 4.3v-4.3zM959.33 454v-4.3l-4.3 4.3h4.3z" stroke="#fff" stroke-opacity="0" fill="#fff"/><use xlink:href="#f" transform="matrix(1,0,0,1,870,509) translate(39.29012345679012 17.77777777777778)"/><use xlink:href="#l" transform="matrix(1,0,0,1,870,509) translate(21.450617283950614 44.44444444444444)"/><path d="M1200 600h100v100h-100V600z" stroke="#fff" stroke-opacity="0" stroke-width="2" fill="#3b48cc"/><path d="M1267 653.98l-8.83 8.8c1.68-.47 3.04-1 4.58-1.87.9.54 1.4 1.4 1.58 2.4 0 2.47-5.17 5.14-12.83 6.2-2.54.34-4.62.47-7.16.47h-1.32c-10.8-.2-18.68-3.6-18.68-6.66.13-1 .68-1.8 1.58-2.4 4.18 2.34 10.98 3.74 18.42 3.74h.13l.77-2.66h-.9c-7.35 0-14.15-1.47-17.74-3.73-1.45-.94-2.26-2-2.26-2.87v-6.2c4.08 3.14 12.2 4.74 20 4.74 1.04 0 2.08 0 3.12-.07l.78-2.66c-1.36.05-2.6.12-3.9.12-11.43 0-20-3.53-20-6.66.13-1.07.68-1.87 1.58-2.4 3.68 2.06 9.35 3.33 15.74 3.66l.1-2.66c-6.3-.33-12.03-1.67-15.16-3.73-1.45-.87-2.22-1.93-2.26-2.87v-6.12c4.08 3.13 12.2 4.73 20 4.73h.27l1.46-2.67h-1.72c-11.43 0-20-3.46-20-6.66 0-3.13 8.57-6.66 20-6.66 4.03 0 7.48.4 11.42 1.33h7.35c-4.03-2.45-10.92-4-18.76-4-10.98 0-22.68 3.28-22.68 9.34v10.72c.1 1.6.77 2.93 2.04 3.93-1.27 1.06-1.95 2.4-2.04 4v10.65c.1 1.66.77 3 2.04 4.06-1.27 1-1.95 2.34-2.04 4v10.93c.36 5.87 11.84 9 22.68 9 10.83 0 22.3-3.13 22.67-9.06v-10.93c-.03-1.6-.76-3-2.03-4 1.27-1 1.95-2.4 2.04-4zm-2.67 20c0 3.12-8.57 6.65-20 6.65-11.42 0-20-3.47-20-6.66v-6.13c4.1 3.06 12.2 4.73 20 4.73 7.8 0 15.92-1.67 20-4.73z" stroke="#fff" stroke-opacity="0" stroke-width="2" fill="#fff"/><path d="M1230 636.7c0 .9-.75 1.66-1.67 1.66-.92 0-1.66-.75-1.66-1.67 0-.93.74-1.67 1.66-1.67.92 0 1.67.74 1.67 1.66zM1230 655.36c0 .92-.75 1.67-1.67 1.67-.92 0-1.66-.75-1.66-1.67 0-.92.74-1.67 1.66-1.67.92 0 1.67.74 1.67 1.66zM1230 674.03c0 .92-.75 1.66-1.67 1.66-.92 0-1.66-.75-1.66-1.67 0-.92.74-1.67 1.66-1.67.92 0 1.67.75 1.67 1.67zM1247.66 668.64c-.24 0-.44-.05-.67-.18-.55-.32-.78-.95-.6-1.54l7.47-24.96h-7.55c-.74.04-1.34-.54-1.34-1.32 0-.22.04-.45.17-.63l8-16c.22-.46.65-.74 1.2-.74h17.33c.73-.04 1.34.55 1.37 1.28.03.18 0 .3-.03.5l-3.45 10.2h7.5c.72.05 1.32.64 1.32 1.37 0 .37-.14.64-.37.9l-29.34 30.7c-.28.3-.6.44-1.04.44zm.83-29.3h7.17c.44 0 .8.17 1.07.5.24.35.34.76.2 1.17l-6.4 21.33 23.34-24.36h-6.2c-.75 0-1.38-.55-1.4-1.27 0-.2 0-.37.05-.5l3.4-10.26h-14.66z" stroke="#fff" stroke-opacity="0" stroke-width="2" fill="#fff"/><use xlink:href="#f" transform="matrix(1,0,0,1,1170,709) translate(39.29012345679012 17.77777777777778)"/><use xlink:href="#m" transform="matrix(1,0,0,1,1170,709) translate(23.30246913580247 44.44444444444444)"/><path d="M100 606a6 6 0 0 1 6-6h188a6 6 0 0 1 6 6v88a6 6 0 0 1-6 6H106a6 6 0 0 1-6-6z" stroke="#dfe3e8" fill="#4c535d"/><use xlink:href="#n" transform="matrix(1,0,0,1,105,605) translate(25.9567901234568 37.46527777777778)"/><use xlink:href="#o" transform="matrix(1,0,0,1,105,605) translate(93.79629629629629 37.46527777777778)"/><use xlink:href="#p" transform="matrix(1,0,0,1,105,605) translate(83.91975308641975 64.13194444444446)"/><path d="M1700 606a6 6 0 0 1 6-6h188a6 6 0 0 1 6 6v88a6 6 0 0 1-6 6h-188a6 6 0 0 1-6-6z" stroke="#dfe3e8" fill="#4c535d"/><use xlink:href="#q" transform="matrix(1,0,0,1,1705,605) translate(63.58024691358025 37.46527777777778)"/><use xlink:href="#r" transform="matrix(1,0,0,1,1705,605) translate(83.91975308641975 64.13194444444446)"/><path d="M300.96 650h82.66" stroke="#f2f3f5" fill="none"/><path d="M300.98 650.5h-.52v-1h.52z" stroke="#f2f3f5" stroke-width=".05" fill="#f2f3f5"/><path d="M398.38 650l-14.26 4.64v-9.28z" stroke="#f2f3f5" fill="#f2f3f5"/><path d="M500.5 650h83.12" stroke="#f2f3f5" fill="none"/><path d="M500.5 650.5h-.5v-1h.5z" stroke="#f2f3f5" stroke-width=".05" fill="#f2f3f5"/><path d="M598.38 650l-14.26 4.64v-9.28z" stroke="#f2f3f5" fill="#f2f3f5"/><path d="M700.5 650h83.12" stroke="#f2f3f5" fill="none"/><path d="M700.5 650.5h-.5v-1h.5z" stroke="#f2f3f5" stroke-width=".05" fill="#f2f3f5"/><path d="M798.38 650l-14.26 4.64v-9.28z" stroke="#f2f3f5" fill="#f2f3f5"/><path d="M900.5 650h83.12" stroke="#f2f3f5" fill="none"/><path d="M900.5 650.5h-.5v-1h.5z" stroke="#f2f3f5" stroke-width=".05" fill="#f2f3f5"/><path d="M998.38 650l-14.26 4.64v-9.28z" stroke="#f2f3f5" fill="#f2f3f5"/><path d="M1100.5 650h83.12" stroke="#f2f3f5" fill="none"/><path d="M1100.5 650.5h-.5v-1h.5z" stroke="#f2f3f5" stroke-width=".05" fill="#f2f3f5"/><path d="M1198.38 650l-14.26 4.64v-9.28z" stroke="#f2f3f5" fill="#f2f3f5"/><path d="M1567.27 650.5h-50.9v-1h50.9zm115.88 0h-50.9v-1h50.9z" stroke="#f2f3f5" stroke-width=".05" fill="#f2f3f5"/><path d="M1515.88 654.64l-14.26-4.64 14.26-4.64z" fill="#f2f3f5"/><path d="M1516.38 655.32L1500 650l16.38-5.32zm-13.14-5.32l12.14 3.95v-7.9z" stroke="#f2f3f5" stroke-width=".05" fill="#f2f3f5"/><path d="M1697.92 650l-14.27 4.64v-9.28z" fill="#f2f3f5"/><path d="M1699.54 650l-16.4 5.32v-10.64zm-15.4 3.95l12.16-3.95-12.15-3.95z" stroke="#f2f3f5" stroke-width=".05" fill="#f2f3f5"/><use xlink:href="#s" transform="matrix(1,0,0,1,1567.2744663844514,639.3333333333334) translate(0 14.222222222222223)"/><path d="M899.5 450H456a6 6 0 0 0-6 6v127.62" stroke="#f2f3f5" fill="none"/><path d="M900 450.5h-.5v-1h.5z" stroke="#f2f3f5" stroke-width=".05" fill="#f2f3f5"/><path d="M450 598.38l-4.64-14.26h9.28z" stroke="#f2f3f5" fill="#f2f3f5"/><path d="M1016.38 450H1044a6 6 0 0 1 6 6v127.62" stroke="#f2f3f5" fill="none"/><path d="M1001.62 450l14.26-4.64v9.28zM1050 598.38l-4.64-14.26h9.28z" stroke="#f2f3f5" fill="#f2f3f5"/><path d="M1400 600h100v100h-100V600z" stroke="#fff" stroke-opacity="0" fill="#693cc5"/><path d="M1464.68 682.02c-.3 0-.54-.13-.8-.26-.35-.26-.55-.64-.55-1.1v-61.33c0-.45.24-.9.65-1.16.4-.25.9-.25 1.32-.06l17.35 8.53c.46.2.74.64.74 1.15v47.13c0 .65-.35 1.16-.93 1.35l-17.33 5.77h-.46zm1.34-60.52v57.32l14.66-4.87V628.6zM1435.32 682.02h-.42l-17.33-5.77c-.56-.2-.93-.77-.9-1.34V627.8c0-.5.28-.96.74-1.15l17.34-8.52c.44-.18.92-.18 1.35.07.4.26.6.7.6 1.16v61.34c0 .45-.2.83-.55 1.1-.25.18-.5.25-.83.25zm-16-8l14.68 4.86V621.5l-14.67 7.17z" stroke="#fff" stroke-opacity="0" fill="#fff"/><path d="M1463.33 636.67h-4V634h4zm-8 0h-4V634h4zm-7.98 0h-4V634h4zm-8 0h-4.02V634h4zM1463.33 666h-4v-2.67h4zm-8 0h-4v-2.67h4zm-7.98 0h-4v-2.67h4zm-8 0h-4.02v-2.67h4zM1444.15 654.6l-5.02-4.3c-.56-.47-.62-1.3-.15-1.87l.15-.15 5-4.28 1.74 2.02-3.82 3.32 3.82 3.26zM1455.87 654.6l-1.74-2.04 3.8-3.22-3.8-3.27 1.72-2.07 5 4.27c.58.47.64 1.32.17 1.88l-.16.14z" stroke="#fff" stroke-opacity="0" fill="#fff"/><path d="M1446.08 657.4l5.3-15.68 2.52.86-5.3 15.67-2.52-.86z" stroke="#fff" stroke-opacity="0" stroke-width=".32" fill="#fff"/><g><use xlink:href="#a" transform="matrix(1,0,0,1,1370,709) translate(18.30246913580247 17.77777777777778)"/><use xlink:href="#t" transform="matrix(1,0,0,1,1370,709) translate(105.89506172839506 17.77777777777778)"/><use xlink:href="#u" transform="matrix(1,0,0,1,1370,709) translate(36.2037037037037 44.44444444444444)"/></g><path d="M1316.38 650h67.24" stroke="#f2f3f5" fill="none"/><path d="M1301.62 650l14.26-4.64v9.28zM1398.38 650l-14.26 4.64v-9.28z" stroke="#f2f3f5" fill="#f2f3f5"/><defs><path fill="#fff" d="M205 0l-28-72H64L36 0H1l101-248h38L239 0h-34zm-38-99l-47-123c-12 45-31 82-46 123h93" id="v"/><path fill="#fff" d="M210-169c-67 3-38 105-44 169h-31v-121c0-29-5-50-35-48C34-165 62-65 56 0H25l-1-190h30c1 10-1 24 2 32 10-44 99-50 107 0 11-21 27-35 58-36 85-2 47 119 55 194h-31v-121c0-29-5-49-35-48" id="w"/><path fill="#fff" d="M141-36C126-15 110 5 73 4 37 3 15-17 15-53c-1-64 63-63 125-63 3-35-9-54-41-54-24 1-41 7-42 31l-33-3c5-37 33-52 76-52 45 0 72 20 72 64v82c-1 20 7 32 28 27v20c-31 9-61-2-59-35zM48-53c0 20 12 33 32 33 41-3 63-29 60-74-43 2-92-5-92 41" id="x"/><path fill="#fff" d="M9 0v-24l116-142H16v-24h144v24L44-24h123V0H9" id="y"/><path fill="#fff" d="M100-194c62-1 85 37 85 99 1 63-27 99-86 99S16-35 15-95c0-66 28-99 85-99zM99-20c44 1 53-31 53-75 0-43-8-75-51-75s-53 32-53 75 10 74 51 75" id="z"/><path fill="#fff" d="M117-194c89-4 53 116 60 194h-32v-121c0-31-8-49-39-48C34-167 62-67 57 0H25l-1-190h30c1 10-1 24 2 32 11-22 29-35 61-36" id="A"/><g id="a"><use transform="matrix(0.06172839506172839,0,0,0.06172839506172839,0,0)" xlink:href="#v"/><use transform="matrix(0.06172839506172839,0,0,0.06172839506172839,14.814814814814813,0)" xlink:href="#w"/><use transform="matrix(0.06172839506172839,0,0,0.06172839506172839,33.2716049382716,0)" xlink:href="#x"/><use transform="matrix(0.06172839506172839,0,0,0.06172839506172839,45.61728395061728,0)" xlink:href="#y"/><use transform="matrix(0.06172839506172839,0,0,0.06172839506172839,56.72839506172839,0)" xlink:href="#z"/><use transform="matrix(0.06172839506172839,0,0,0.06172839506172839,69.07407407407408,0)" xlink:href="#A"/></g><path fill="#fff" d="M185-189c-5-48-123-54-124 2 14 75 158 14 163 119 3 78-121 87-175 55-17-10-28-26-33-46l33-7c5 56 141 63 141-1 0-78-155-14-162-118-5-82 145-84 179-34 5 7 8 16 11 25" id="B"/><path fill="#fff" d="M24-231v-30h32v30H24zM24 0v-190h32V0H24" id="C"/><path fill="#fff" d="M115-194c55 1 70 41 70 98S169 2 115 4C84 4 66-9 55-30l1 105H24l-1-265h31l2 30c10-21 28-34 59-34zm-8 174c40 0 45-34 45-75s-6-73-45-74c-42 0-51 32-51 76 0 43 10 73 51 73" id="D"/><path fill="#fff" d="M24 0v-261h32V0H24" id="E"/><path fill="#fff" d="M100-194c63 0 86 42 84 106H49c0 40 14 67 53 68 26 1 43-12 49-29l28 8c-11 28-37 45-77 45C44 4 14-33 15-96c1-61 26-98 85-98zm52 81c6-60-76-77-97-28-3 7-6 17-6 28h103" id="F"/><g id="b"><use transform="matrix(0.06172839506172839,0,0,0.06172839506172839,0,0)" xlink:href="#B"/><use transform="matrix(0.06172839506172839,0,0,0.06172839506172839,14.814814814814813,0)" xlink:href="#C"/><use transform="matrix(0.06172839506172839,0,0,0.06172839506172839,19.691358024691354,0)" xlink:href="#w"/><use transform="matrix(0.06172839506172839,0,0,0.06172839506172839,38.14814814814814,0)" xlink:href="#D"/><use transform="matrix(0.06172839506172839,0,0,0.06172839506172839,50.493827160493815,0)" xlink:href="#E"/><use transform="matrix(0.06172839506172839,0,0,0.06172839506172839,55.37037037037036,0)" xlink:href="#F"/></g><path fill="#fff" d="M59-47c-2 24 18 29 38 22v24C64 9 27 4 27-40v-127H5v-23h24l9-43h21v43h35v23H59v120" id="G"/><path fill="#fff" d="M114-163C36-179 61-72 57 0H25l-1-190h30c1 12-1 29 2 39 6-27 23-49 58-41v29" id="H"/><path fill="#fff" d="M177-190C167-65 218 103 67 71c-23-6-38-20-44-43l32-5c15 47 100 32 89-28v-30C133-14 115 1 83 1 29 1 15-40 15-95c0-56 16-97 71-98 29-1 48 16 59 35 1-10 0-23 2-32h30zM94-22c36 0 50-32 50-73 0-42-14-75-50-75-39 0-46 34-46 75s6 73 46 73" id="I"/><g id="c"><use transform="matrix(0.06172839506172839,0,0,0.06172839506172839,0,0)" xlink:href="#B"/><use transform="matrix(0.06172839506172839,0,0,0.06172839506172839,14.814814814814813,0)" xlink:href="#G"/><use transform="matrix(0.06172839506172839,0,0,0.06172839506172839,20.98765432098765,0)" xlink:href="#z"/><use transform="matrix(0.06172839506172839,0,0,0.06172839506172839,33.33333333333333,0)" xlink:href="#H"/><use transform="matrix(0.06172839506172839,0,0,0.06172839506172839,40.679012345679006,0)" xlink:href="#x"/><use transform="matrix(0.06172839506172839,0,0,0.06172839506172839,53.02469135802468,0)" xlink:href="#I"/><use transform="matrix(0.06172839506172839,0,0,0.06172839506172839,65.37037037037037,0)" xlink:href="#F"/></g><path fill="#fff" d="M108 0H70L1-190h34L89-25l56-165h34" id="J"/><path fill="#fff" d="M96-169c-40 0-48 33-48 73s9 75 48 75c24 0 41-14 43-38l32 2c-6 37-31 61-74 61-59 0-76-41-82-99-10-93 101-131 147-64 4 7 5 14 7 22l-32 3c-4-21-16-35-41-35" id="K"/><g id="d"><use transform="matrix(0.06172839506172839,0,0,0.06172839506172839,0,0)" xlink:href="#B"/><use transform="matrix(0.06172839506172839,0,0,0.06172839506172839,14.814814814814813,0)" xlink:href="#F"/><use transform="matrix(0.06172839506172839,0,0,0.06172839506172839,27.160493827160494,0)" xlink:href="#H"/><use transform="matrix(0.06172839506172839,0,0,0.06172839506172839,34.50617283950617,0)" xlink:href="#J"/><use transform="matrix(0.06172839506172839,0,0,0.06172839506172839,45.61728395061728,0)" xlink:href="#C"/><use transform="matrix(0.06172839506172839,0,0,0.06172839506172839,50.49382716049382,0)" xlink:href="#K"/><use transform="matrix(0.06172839506172839,0,0,0.06172839506172839,61.60493827160494,0)" xlink:href="#F"/></g><path fill="#fff" d="M87 75C49 33 22-17 22-94c0-76 28-126 65-167h31c-38 41-64 92-64 168S80 34 118 75H87" id="L"/><path fill="#fff" d="M126-127c33 6 58 20 58 59 0 88-139 92-164 29-3-8-5-16-6-25l32-3c6 27 21 44 54 44 32 0 52-15 52-46 0-38-36-46-79-43v-28c39 1 72-4 72-42 0-27-17-43-46-43-28 0-47 15-49 41l-32-3c6-42 35-63 81-64 48-1 79 21 79 65 0 36-21 52-52 59" id="M"/><path fill="#fff" d="M33-261c38 41 65 92 65 168S71 34 33 75H2C39 34 66-17 66-93S39-220 2-261h31" id="N"/><g id="e"><use transform="matrix(0.06172839506172839,0,0,0.06172839506172839,0,0)" xlink:href="#L"/><use transform="matrix(0.06172839506172839,0,0,0.06172839506172839,7.345679012345679,0)" xlink:href="#B"/><use transform="matrix(0.06172839506172839,0,0,0.06172839506172839,22.160493827160494,0)" xlink:href="#M"/><use transform="matrix(0.06172839506172839,0,0,0.06172839506172839,34.50617283950617,0)" xlink:href="#N"/></g><g id="f"><use transform="matrix(0.06172839506172839,0,0,0.06172839506172839,0,0)" xlink:href="#v"/><use transform="matrix(0.06172839506172839,0,0,0.06172839506172839,14.814814814814813,0)" xlink:href="#w"/><use transform="matrix(0.06172839506172839,0,0,0.06172839506172839,33.2716049382716,0)" xlink:href="#x"/><use transform="matrix(0.06172839506172839,0,0,0.06172839506172839,45.61728395061728,0)" xlink:href="#y"/><use transform="matrix(0.06172839506172839,0,0,0.06172839506172839,56.72839506172839,0)" xlink:href="#z"/><use transform="matrix(0.06172839506172839,0,0,0.06172839506172839,69.07407407407408,0)" xlink:href="#A"/></g><path fill="#fff" d="M30 0v-248h187v28H63v79h144v27H63v87h162V0H30" id="O"/><path fill="#fff" d="M160-131c35 5 61 23 61 61C221 17 115-2 30 0v-248c76 3 177-17 177 60 0 33-19 50-47 57zm-97-11c50-1 110 9 110-42 0-47-63-36-110-37v79zm0 115c55-2 124 14 124-45 0-56-70-42-124-44v89" id="P"/><path fill="#fff" d="M85-194c31 0 48 13 60 33l-1-100h32l1 261h-30c-2-10 0-23-3-31C134-8 116 4 85 4 32 4 16-35 15-94c0-66 23-100 70-100zm9 24c-40 0-46 34-46 75 0 40 6 74 45 74 42 0 51-32 51-76 0-42-9-74-50-73" id="Q"/><g id="g"><use transform="matrix(0.06172839506172839,0,0,0.06172839506172839,0,0)" xlink:href="#O"/><use transform="matrix(0.06172839506172839,0,0,0.06172839506172839,14.814814814814813,0)" xlink:href="#J"/><use transform="matrix(0.06172839506172839,0,0,0.06172839506172839,25.925925925925924,0)" xlink:href="#F"/><use transform="matrix(0.06172839506172839,0,0,0.06172839506172839,38.2716049382716,0)" xlink:href="#A"/><use transform="matrix(0.06172839506172839,0,0,0.06172839506172839,50.61728395061728,0)" xlink:href="#G"/><use transform="matrix(0.06172839506172839,0,0,0.06172839506172839,56.79012345679012,0)" xlink:href="#P"/><use transform="matrix(0.06172839506172839,0,0,0.06172839506172839,71.60493827160494,0)" xlink:href="#H"/><use transform="matrix(0.06172839506172839,0,0,0.06172839506172839,78.95061728395062,0)" xlink:href="#C"/><use transform="matrix(0.06172839506172839,0,0,0.06172839506172839,83.82716049382717,0)" xlink:href="#Q"/><use transform="matrix(0.06172839506172839,0,0,0.06172839506172839,96.17283950617285,0)" xlink:href="#I"/><use transform="matrix(0.06172839506172839,0,0,0.06172839506172839,108.51851851851853,0)" xlink:href="#F"/></g><path fill="#fff" d="M140-251c81 0 123 46 123 126C263-53 228-8 163 1c7 30 30 48 69 40v23c-55 16-95-15-103-61C56-3 17-48 17-125c0-80 42-126 123-126zm0 227c63 0 89-41 89-101s-29-99-89-99c-61 0-89 39-89 99S79-25 140-24" id="R"/><path fill="#fff" d="M84 4C-5 8 30-112 23-190h32v120c0 31 7 50 39 49 72-2 45-101 50-169h31l1 190h-30c-1-10 1-25-2-33-11 22-28 36-60 37" id="S"/><g id="h"><use transform="matrix(0.06172839506172839,0,0,0.06172839506172839,0,0)" xlink:href="#R"/><use transform="matrix(0.06172839506172839,0,0,0.06172839506172839,17.28395061728395,0)" xlink:href="#S"/><use transform="matrix(0.06172839506172839,0,0,0.06172839506172839,29.629629629629626,0)" xlink:href="#F"/><use transform="matrix(0.06172839506172839,0,0,0.06172839506172839,41.9753086419753,0)" xlink:href="#S"/><use transform="matrix(0.06172839506172839,0,0,0.06172839506172839,54.32098765432098,0)" xlink:href="#F"/></g><g id="i"><use transform="matrix(0.06172839506172839,0,0,0.06172839506172839,0,0)" xlink:href="#B"/><use transform="matrix(0.06172839506172839,0,0,0.06172839506172839,14.814814814814813,0)" xlink:href="#F"/><use transform="matrix(0.06172839506172839,0,0,0.06172839506172839,27.160493827160494,0)" xlink:href="#H"/><use transform="matrix(0.06172839506172839,0,0,0.06172839506172839,34.50617283950617,0)" xlink:href="#J"/><use transform="matrix(0.06172839506172839,0,0,0.06172839506172839,45.61728395061728,0)" xlink:href="#C"/><use transform="matrix(0.06172839506172839,0,0,0.06172839506172839,50.49382716049382,0)" xlink:href="#K"/><use transform="matrix(0.06172839506172839,0,0,0.06172839506172839,61.60493827160494,0)" xlink:href="#F"/></g><path fill="#fff" d="M266 0h-40l-56-210L115 0H75L2-248h35L96-30l15-64 43-154h32l59 218 59-218h35" id="T"/><g id="j"><use transform="matrix(0.06172839506172839,0,0,0.06172839506172839,0,0)" xlink:href="#v"/><use transform="matrix(0.06172839506172839,0,0,0.06172839506172839,14.012345679012345,0)" xlink:href="#T"/><use transform="matrix(0.06172839506172839,0,0,0.06172839506172839,34.938271604938265,0)" xlink:href="#B"/></g><path fill="#fff" d="M30 0v-248h33v221h125V0H30" id="U"/><path fill="#fff" d="M115-194c53 0 69 39 70 98 0 66-23 100-70 100C84 3 66-7 56-30L54 0H23l1-261h32v101c10-23 28-34 59-34zm-8 174c40 0 45-34 45-75 0-40-5-75-45-74-42 0-51 32-51 76 0 43 10 73 51 73" id="V"/><g id="k"><use transform="matrix(0.06172839506172839,0,0,0.06172839506172839,0,0)" xlink:href="#U"/><use transform="matrix(0.06172839506172839,0,0,0.06172839506172839,12.345679012345679,0)" xlink:href="#x"/><use transform="matrix(0.06172839506172839,0,0,0.06172839506172839,24.691358024691358,0)" xlink:href="#w"/><use transform="matrix(0.06172839506172839,0,0,0.06172839506172839,43.148148148148145,0)" xlink:href="#V"/><use transform="matrix(0.06172839506172839,0,0,0.06172839506172839,55.49382716049382,0)" xlink:href="#Q"/><use transform="matrix(0.06172839506172839,0,0,0.06172839506172839,67.8395061728395,0)" xlink:href="#x"/></g><path fill="#fff" d="M233-177c-1 41-23 64-60 70L243 0h-38l-65-103H63V0H30v-248c88 3 205-21 203 71zM63-129c60-2 137 13 137-47 0-61-80-42-137-45v92" id="W"/><path fill="#fff" d="M143 0L79-87 56-68V0H24v-261h32v163l83-92h37l-77 82L181 0h-38" id="X"/><g id="l"><use transform="matrix(0.06172839506172839,0,0,0.06172839506172839,0,0)" xlink:href="#W"/><use transform="matrix(0.06172839506172839,0,0,0.06172839506172839,15.987654320987653,0)" xlink:href="#F"/><use transform="matrix(0.06172839506172839,0,0,0.06172839506172839,28.333333333333332,0)" xlink:href="#X"/><use transform="matrix(0.06172839506172839,0,0,0.06172839506172839,39.44444444444444,0)" xlink:href="#z"/><use transform="matrix(0.06172839506172839,0,0,0.06172839506172839,51.79012345679012,0)" xlink:href="#I"/><use transform="matrix(0.06172839506172839,0,0,0.06172839506172839,64.1358024691358,0)" xlink:href="#A"/><use transform="matrix(0.06172839506172839,0,0,0.06172839506172839,76.48148148148148,0)" xlink:href="#C"/><use transform="matrix(0.06172839506172839,0,0,0.06172839506172839,81.35802469135803,0)" xlink:href="#G"/><use transform="matrix(0.06172839506172839,0,0,0.06172839506172839,87.53086419753086,0)" xlink:href="#C"/><use transform="matrix(0.06172839506172839,0,0,0.06172839506172839,92.4074074074074,0)" xlink:href="#z"/><use transform="matrix(0.06172839506172839,0,0,0.06172839506172839,104.75308641975309,0)" xlink:href="#A"/></g><path fill="#fff" d="M30-248c118-7 216 8 213 122C240-48 200 0 122 0H30v-248zM63-27c89 8 146-16 146-99s-60-101-146-95v194" id="Y"/><path fill="#fff" d="M179-190L93 31C79 59 56 82 12 73V49c39 6 53-20 64-50L1-190h34L92-34l54-156h33" id="Z"/><g id="m"><use transform="matrix(0.06172839506172839,0,0,0.06172839506172839,0,0)" xlink:href="#Y"/><use transform="matrix(0.06172839506172839,0,0,0.06172839506172839,15.987654320987653,0)" xlink:href="#Z"/><use transform="matrix(0.06172839506172839,0,0,0.06172839506172839,27.098765432098766,0)" xlink:href="#A"/><use transform="matrix(0.06172839506172839,0,0,0.06172839506172839,39.44444444444444,0)" xlink:href="#x"/><use transform="matrix(0.06172839506172839,0,0,0.06172839506172839,51.79012345679012,0)" xlink:href="#w"/><use transform="matrix(0.06172839506172839,0,0,0.06172839506172839,70.24691358024691,0)" xlink:href="#z"/><use transform="matrix(0.06172839506172839,0,0,0.06172839506172839,82.5925925925926,0)" xlink:href="#Y"/><use transform="matrix(0.06172839506172839,0,0,0.06172839506172839,98.58024691358025,0)" xlink:href="#P"/></g><path fill="#fff" d="M33 0v-248h34V0H33" id="aa"/><g id="n"><use transform="matrix(0.06172839506172839,0,0,0.06172839506172839,0,0)" xlink:href="#aa"/><use transform="matrix(0.06172839506172839,0,0,0.06172839506172839,6.172839506172839,0)" xlink:href="#w"/><use transform="matrix(0.06172839506172839,0,0,0.06172839506172839,24.629629629629626,0)" xlink:href="#x"/><use transform="matrix(0.06172839506172839,0,0,0.06172839506172839,36.9753086419753,0)" xlink:href="#I"/><use transform="matrix(0.06172839506172839,0,0,0.06172839506172839,49.32098765432098,0)" xlink:href="#F"/></g><path fill="#fff" d="M232-93c-1 65-40 97-104 97C67 4 28-28 28-90v-158h33c8 89-33 224 67 224 102 0 64-133 71-224h33v155" id="ab"/><g id="o"><use transform="matrix(0.06172839506172839,0,0,0.06172839506172839,0,0)" xlink:href="#ab"/><use transform="matrix(0.06172839506172839,0,0,0.06172839506172839,15.987654320987653,0)" xlink:href="#D"/><use transform="matrix(0.06172839506172839,0,0,0.06172839506172839,28.333333333333332,0)" xlink:href="#E"/><use transform="matrix(0.06172839506172839,0,0,0.06172839506172839,33.20987654320987,0)" xlink:href="#z"/><use transform="matrix(0.06172839506172839,0,0,0.06172839506172839,45.55555555555555,0)" xlink:href="#x"/><use transform="matrix(0.06172839506172839,0,0,0.06172839506172839,57.90123456790123,0)" xlink:href="#Q"/></g><g id="p"><use transform="matrix(0.06172839506172839,0,0,0.06172839506172839,0,0)" xlink:href="#ab"/><use transform="matrix(0.06172839506172839,0,0,0.06172839506172839,15.987654320987653,0)" xlink:href="#aa"/></g><path fill="#fff" d="M135-143c-3-34-86-38-87 0 15 53 115 12 119 90S17 21 10-45l28-5c4 36 97 45 98 0-10-56-113-15-118-90-4-57 82-63 122-42 12 7 21 19 24 35" id="ac"/><g id="q"><use transform="matrix(0.06172839506172839,0,0,0.06172839506172839,0,0)" xlink:href="#W"/><use transform="matrix(0.06172839506172839,0,0,0.06172839506172839,15.987654320987653,0)" xlink:href="#F"/><use transform="matrix(0.06172839506172839,0,0,0.06172839506172839,28.333333333333332,0)" xlink:href="#ac"/><use transform="matrix(0.06172839506172839,0,0,0.06172839506172839,39.44444444444444,0)" xlink:href="#S"/><use transform="matrix(0.06172839506172839,0,0,0.06172839506172839,51.79012345679012,0)" xlink:href="#E"/><use transform="matrix(0.06172839506172839,0,0,0.06172839506172839,56.666666666666664,0)" xlink:href="#G"/></g><g id="r"><use transform="matrix(0.06172839506172839,0,0,0.06172839506172839,0,0)" xlink:href="#ab"/><use transform="matrix(0.06172839506172839,0,0,0.06172839506172839,15.987654320987653,0)" xlink:href="#aa"/></g><path fill="#fff" d="M24-248c93 1 206-16 204 79-1 75-69 88-152 82V0H24v-248zm52 121c47 0 100 7 100-41 0-47-54-39-100-39v80" id="ad"/><path fill="#fff" d="M110-194c64 0 96 36 96 99 0 64-35 99-97 99-61 0-95-36-95-99 0-62 34-99 96-99zm-1 164c35 0 45-28 45-65 0-40-10-65-43-65-34 0-45 26-45 65 0 36 10 65 43 65" id="ae"/><path fill="#fff" d="M25 0v-261h50V0H25" id="af"/><path fill="#fff" d="M25-224v-37h50v37H25zM25 0v-190h50V0H25" id="ag"/><path fill="#fff" d="M135-194c87-1 58 113 63 194h-50c-7-57 23-157-34-157-59 0-34 97-39 157H25l-1-190h47c2 12-1 28 3 38 12-26 28-41 61-42" id="ah"/><path fill="#fff" d="M195-6C206 82 75 100 31 46c-4-6-6-13-8-21l49-6c3 16 16 24 34 25 40 0 42-37 40-79-11 22-30 35-61 35-53 0-70-43-70-97 0-56 18-96 73-97 30 0 46 14 59 34l2-30h47zm-90-29c32 0 41-27 41-63 0-35-9-62-40-62-32 0-39 29-40 63 0 36 9 62 39 62" id="ai"/><g id="s"><use transform="matrix(0.04938271604938272,0,0,0.04938271604938272,0,0)" xlink:href="#ad"/><use transform="matrix(0.04938271604938272,0,0,0.04938271604938272,11.851851851851853,0)" xlink:href="#ae"/><use transform="matrix(0.04938271604938272,0,0,0.04938271604938272,22.666666666666668,0)" xlink:href="#ae"/><use transform="matrix(0.04938271604938272,0,0,0.04938271604938272,33.48148148148148,0)" xlink:href="#af"/><use transform="matrix(0.04938271604938272,0,0,0.04938271604938272,38.41975308641975,0)" xlink:href="#ag"/><use transform="matrix(0.04938271604938272,0,0,0.04938271604938272,43.358024691358025,0)" xlink:href="#ah"/><use transform="matrix(0.04938271604938272,0,0,0.04938271604938272,54.17283950617284,0)" xlink:href="#ai"/></g><path fill="#fff" d="M30-248c87 1 191-15 191 75 0 78-77 80-158 76V0H30v-248zm33 125c57 0 124 11 124-50 0-59-68-47-124-48v98" id="aj"/><g id="t"><use transform="matrix(0.06172839506172839,0,0,0.06172839506172839,0,0)" xlink:href="#v"/><use transform="matrix(0.06172839506172839,0,0,0.06172839506172839,14.814814814814813,0)" xlink:href="#aj"/><use transform="matrix(0.06172839506172839,0,0,0.06172839506172839,29.629629629629626,0)" xlink:href="#aa"/></g><path fill="#fff" d="M143 4C61 4 22-44 18-125c-5-107 100-154 193-111 17 8 29 25 37 43l-32 9c-13-25-37-40-76-40-61 0-88 39-88 99 0 61 29 100 91 101 35 0 62-11 79-27v-45h-74v-28h105v86C228-13 192 4 143 4" id="ak"/><path fill="#fff" d="M206 0h-36l-40-164L89 0H53L-1-190h32L70-26l43-164h34l41 164 42-164h31" id="al"/><g id="u"><use transform="matrix(0.06172839506172839,0,0,0.06172839506172839,0,0)" xlink:href="#ak"/><use transform="matrix(0.06172839506172839,0,0,0.06172839506172839,17.28395061728395,0)" xlink:href="#x"/><use transform="matrix(0.06172839506172839,0,0,0.06172839506172839,29.629629629629626,0)" xlink:href="#G"/><use transform="matrix(0.06172839506172839,0,0,0.06172839506172839,35.80246913580247,0)" xlink:href="#F"/><use transform="matrix(0.06172839506172839,0,0,0.06172839506172839,48.148148148148145,0)" xlink:href="#al"/><use transform="matrix(0.06172839506172839,0,0,0.06172839506172839,64.1358024691358,0)" xlink:href="#x"/><use transform="matrix(0.06172839506172839,0,0,0.06172839506172839,76.48148148148148,0)" xlink:href="#Z"/></g></defs></g></svg>